<svg width="64" height="64" viewBox="0 0 64 64" fill="none" xmlns="http://www.w3.org/2000/svg">
<rect width="64" height="64" rx="12" fill="#1A253C"/>
<path d="M22.2998 49.7646L21.9922 51.0771C20.7344 51.583 19.7295 51.9316 18.9775 52.123C18.2256 52.3281 17.583 52.4307 17.0498 52.4307C15.9561 52.4307 15.1357 52.1504 14.5889 51.5898C14.042 51.0156 13.7686 50.3115 13.7686 49.4775C13.7686 49.1631 13.7959 48.835 13.8506 48.4932C13.9053 48.1514 13.9941 47.7207 14.1172 47.2012L16.291 38.4854C16.4004 38.0068 16.5029 37.4941 16.5986 36.9473C16.708 36.4004 16.7627 35.9355 16.7627 35.5527C16.7627 34.7871 16.6328 34.2812 16.373 34.0352C16.127 33.7754 15.6143 33.6455 14.835 33.6455C14.5342 33.6455 14.1309 33.6934 13.625 33.7891C13.1328 33.8848 12.7568 33.9668 12.4971 34.0352L12.8047 32.7227C13.8711 32.2441 14.8281 31.8887 15.6758 31.6562C16.5234 31.4238 17.1934 31.3076 17.6855 31.3076C18.8066 31.3076 19.6201 31.5742 20.126 32.1074C20.6318 32.6406 20.8848 33.3584 20.8848 34.2607C20.8848 34.5068 20.8574 34.8418 20.8027 35.2656C20.748 35.6895 20.666 36.1133 20.5566 36.5371L18.3623 45.2529C18.2256 45.7861 18.1025 46.3125 17.9932 46.832C17.8975 47.3379 17.8496 47.7549 17.8496 48.083C17.8496 48.8623 18.0205 49.3955 18.3623 49.6826C18.7178 49.9697 19.2852 50.1133 20.0645 50.1133C20.3242 50.1133 20.6934 50.0791 21.1719 50.0107C21.6641 49.9424 22.04 49.8604 22.2998 49.7646ZM23.7559 23.5557C23.7559 24.335 23.5029 25.0186 22.9971 25.6064C22.4912 26.1807 21.8623 26.4678 21.1104 26.4678C20.4131 26.4678 19.8115 26.1943 19.3057 25.6475C18.7998 25.0869 18.5469 24.4512 18.5469 23.7402C18.5469 22.9883 18.7998 22.332 19.3057 21.7715C19.8115 21.2109 20.4131 20.9307 21.1104 20.9307C21.8896 20.9307 22.5254 21.1973 23.0176 21.7305C23.5098 22.25 23.7559 22.8584 23.7559 23.5557Z" fill="white"/>
<path d="M38.7861 47.7793C36.9131 47.7793 35.1768 47.5059 33.5771 46.959C31.9775 46.3984 30.5967 45.5986 29.4346 44.5596C28.2861 43.5205 27.3906 42.2559 26.748 40.7656C26.1055 39.2617 25.7842 37.5664 25.7842 35.6797C25.7842 33.1777 26.2422 30.8193 27.1582 28.6045C28.0879 26.3896 29.3936 24.4141 31.0752 22.6777C32.6885 21.0098 34.6572 19.6699 36.9814 18.6582C39.3193 17.6328 41.8008 17.1201 44.4258 17.1201C46.0117 17.1201 47.6182 17.3115 49.2451 17.6943C50.8721 18.0771 52.0889 18.5215 52.8955 19.0273L54.4336 17.8994H56.2178L53.9414 28.5225H52.1367C51.8633 25.4189 51.0361 23.0605 49.6553 21.4473C48.2881 19.8203 46.5244 19.0068 44.3643 19.0068C42.7783 19.0068 41.3154 19.4785 39.9756 20.4219C38.6357 21.3652 37.4463 22.8145 36.4072 24.7695C35.5596 26.3828 34.9102 28.2559 34.459 30.3887C34.0215 32.5078 33.8027 34.4971 33.8027 36.3564C33.8027 39.0908 34.4658 41.2168 35.792 42.7344C37.1182 44.252 38.8955 45.0107 41.124 45.0107C43.0791 45.0107 44.8906 44.4639 46.5586 43.3701C48.2266 42.2764 49.833 40.6973 51.3779 38.6328L52.957 39.6992C52.2871 40.7383 51.4873 41.7637 50.5576 42.7754C49.6279 43.7734 48.5684 44.6416 47.3789 45.3799C46.1348 46.1592 44.8496 46.7539 43.5234 47.1641C42.2109 47.5742 40.6318 47.7793 38.7861 47.7793Z" fill="#F6374F"/>
</svg>
